<svg width="1054" height="650" viewBox="0 0 1054 650" fill="none" xmlns="http://www.w3.org/2000/svg">
<rect x="4.87211" y="4.87211" width="1044.26" height="394.641" rx="27.6086" fill="#ED27E1" stroke="black" stroke-width="9.74422"/>
<rect x="469.347" y="357.288" width="526.188" height="228.989" rx="27.6086" fill="#A026FA" stroke="black" stroke-width="9.74422"/>
<path d="M345.764 277.585L330.173 240.376H259.703L244.112 277.585H223.532L285.064 132.487H304.812L366.344 277.585H345.764ZM267.187 222.082V223.122H322.69V222.082L295.25 155.77H294.834L267.187 222.082ZM403.401 184.872C413.241 174.617 424.882 169.49 438.324 169.49C451.767 169.49 463.477 174.479 473.455 184.457C483.572 194.435 488.63 207.808 488.63 224.577C488.63 241.346 483.572 254.719 473.455 264.697C463.477 274.675 451.767 279.664 438.324 279.664C424.882 279.664 413.241 274.537 403.401 264.281H402.777L400.491 277.585H383.861V125.835H402.777V184.872H403.401ZM435.622 261.995C445.877 261.995 454.123 258.738 460.359 252.224C466.596 245.711 469.714 236.495 469.714 224.577C469.714 212.659 466.596 203.443 460.359 196.929C454.123 190.416 445.877 187.159 435.622 187.159C423.149 187.159 412.201 192.356 402.777 202.75V246.404C412.201 256.798 423.149 261.995 435.622 261.995ZM508.557 224.577C508.557 208.085 513.408 194.781 523.109 184.665C532.81 174.548 545.629 169.49 561.566 169.49C577.642 169.49 590.53 174.548 600.231 184.665C610.071 194.781 614.99 208.085 614.99 224.577C614.99 241.068 610.071 254.373 600.231 264.489C590.53 274.606 577.642 279.664 561.566 279.664C545.629 279.664 532.81 274.606 523.109 264.489C513.408 254.373 508.557 241.068 508.557 224.577ZM537.66 253.056C544.589 259.292 552.627 262.41 561.774 262.41C570.92 262.41 578.889 259.292 585.68 253.056C592.609 246.681 596.074 237.188 596.074 224.577C596.074 211.827 592.609 202.334 585.68 196.098C578.889 189.861 570.92 186.743 561.774 186.743C552.627 186.743 544.589 189.861 537.66 196.098C530.87 202.334 527.474 211.827 527.474 224.577C527.474 237.188 530.87 246.681 537.66 253.056ZM677.852 279.664C666.349 279.664 657.272 275.784 650.62 268.023C643.968 260.262 640.642 250.561 640.642 238.92V171.568H659.559V236.842C659.559 253.749 667.181 262.203 682.425 262.203C694.482 262.203 705.846 255.551 716.517 242.246V171.568H735.434V277.585H718.804L716.517 264.281V261.163H716.101C704.876 273.497 692.126 279.664 677.852 279.664ZM824.27 187.783H794.128V250.561C794.128 256.382 795.722 259.985 798.909 261.371C801.542 262.48 804.938 263.034 809.095 263.034C813.253 263.034 817.826 261.925 822.815 259.708H824.27V275.091C818.45 278.14 812.213 279.664 805.561 279.664C785.328 279.664 775.211 270.518 775.211 252.224V187.783H755.463V186.535L794.128 148.702V171.568H824.27V187.783Z" fill="white"/>
<path d="M726.919 423.646H739.924V485.957C739.924 492.436 738.686 498.248 736.208 503.392C733.827 508.442 730.587 512.491 726.49 515.54C722.489 518.589 718.106 520.923 713.342 522.543C708.673 524.068 703.862 524.83 698.908 524.83C693.953 524.83 689.094 524.068 684.33 522.543C679.662 520.923 675.279 518.589 671.182 515.54C667.18 512.491 663.941 508.442 661.464 503.392C659.082 498.248 657.891 492.436 657.891 485.957V423.646H670.896V486.386C670.896 494.77 673.659 501.296 679.185 505.965C684.711 510.634 691.285 512.968 698.908 512.968C706.53 512.968 713.104 510.634 718.63 505.965C724.156 501.296 726.919 494.77 726.919 486.386V423.646ZM790.775 460.947C784.678 460.947 780.152 461.899 777.198 463.805C774.34 465.615 772.911 467.95 772.911 470.808C772.911 473.571 774.388 475.715 777.341 477.239C780.295 478.763 783.868 480.002 788.06 480.955C792.347 481.812 796.587 482.908 800.779 484.242C804.972 485.576 808.544 487.862 811.498 491.102C814.452 494.341 815.928 498.772 815.928 504.393C815.928 510.014 813.499 514.826 808.64 518.827C803.876 522.829 796.73 524.83 787.202 524.83C777.77 524.83 769.147 522.686 761.335 518.399V505.965H762.049C769.767 510.538 778.246 512.825 787.488 512.825C798.064 512.825 803.352 509.443 803.352 502.678C803.352 500.487 801.875 498.724 798.921 497.39C795.968 495.961 792.395 494.77 788.203 493.817C784.011 492.864 779.818 491.721 775.626 490.387C771.434 489.053 767.861 486.814 764.908 483.67C761.954 480.526 760.477 476.524 760.477 471.665C760.477 464.996 762.859 459.565 767.623 455.373C772.482 451.181 779.056 449.085 787.345 449.085C795.634 449.085 803.352 450.419 810.498 453.086V464.948H809.497C803.114 462.281 796.873 460.947 790.775 460.947Z" fill="black"/>
<path d="M470.966 640.064C515.495 640.064 537.75 610.162 537.75 573.276C537.75 536.399 515.495 506.497 470.961 506.497C426.437 506.497 404.182 536.399 404.182 573.28C404.182 610.162 426.432 640.064 470.966 640.064Z" fill="#FFB02E"/>
<path d="M444.351 574.354C447.011 574.395 449.654 573.906 452.124 572.916C454.594 571.926 456.842 570.455 458.738 568.588C460.635 566.721 462.14 564.496 463.168 562.041C464.196 559.586 464.725 556.952 464.725 554.291C464.725 551.63 464.196 548.995 463.168 546.541C462.14 544.086 460.635 541.861 458.738 539.994C456.842 538.127 454.594 536.655 452.124 535.666C449.654 534.676 447.011 534.187 444.351 534.228C439.083 534.309 434.059 536.459 430.363 540.213C426.667 543.966 424.595 549.023 424.595 554.291C424.595 559.559 426.667 564.616 430.363 568.369C434.059 572.123 439.083 574.273 444.351 574.354ZM497.533 574.721C502.904 574.721 508.054 572.588 511.851 568.79C515.649 564.993 517.782 559.843 517.782 554.472C517.782 549.102 515.649 543.952 511.851 540.154C508.054 536.357 502.904 534.223 497.533 534.223C492.162 534.223 487.011 536.357 483.214 540.155C479.416 543.953 477.282 549.104 477.282 554.475C477.282 559.846 479.416 564.997 483.214 568.794C487.011 572.592 492.162 574.721 497.533 574.721Z" fill="white"/>
<path d="M447.118 568.514C450.913 568.514 454.554 567.006 457.238 564.322C459.922 561.638 461.43 557.998 461.43 554.202C461.43 550.407 459.922 546.766 457.238 544.082C454.554 541.398 450.913 539.891 447.118 539.891C443.322 539.891 439.682 541.398 436.998 544.082C434.314 546.766 432.806 550.407 432.806 554.202C432.806 557.998 434.314 561.638 436.998 564.322C439.682 567.006 443.322 568.514 447.118 568.514ZM494.824 568.514C498.62 568.514 502.26 567.006 504.944 564.322C507.628 561.638 509.136 557.998 509.136 554.202C509.136 550.407 507.628 546.766 504.944 544.082C502.26 541.398 498.62 539.891 494.824 539.891C491.028 539.891 487.388 541.398 484.704 544.082C482.02 546.766 480.512 550.407 480.512 554.202C480.512 557.998 482.02 561.638 484.704 564.322C487.388 567.006 491.028 568.514 494.824 568.514Z" fill="#402A32"/>
<path fill-rule="evenodd" clip-rule="evenodd" d="M444.255 583.78C444.756 583.404 445.327 583.131 445.934 582.975C446.541 582.82 447.172 582.786 447.792 582.874C448.413 582.963 449.009 583.173 449.548 583.492C450.087 583.811 450.558 584.233 450.934 584.734C452.413 586.705 459.101 592.367 470.971 592.367C482.84 592.367 489.528 586.705 491.007 584.734C491.383 584.233 491.854 583.811 492.393 583.492C492.932 583.173 493.529 582.963 494.149 582.874C494.769 582.786 495.401 582.82 496.008 582.975C496.615 583.131 497.185 583.404 497.686 583.78C498.187 584.156 498.61 584.627 498.929 585.166C499.248 585.705 499.458 586.302 499.546 586.922C499.635 587.542 499.601 588.174 499.445 588.781C499.29 589.388 499.016 589.958 498.64 590.459C495.349 594.848 485.817 601.909 470.971 601.909C456.125 601.909 446.593 594.848 443.301 590.459C442.542 589.447 442.216 588.175 442.395 586.922C442.574 585.67 443.243 584.539 444.255 583.78Z" fill="#402A32"/>
</svg>
